G04 #@! TF.GenerationSoftware,KiCad,Pcbnew,(5.0.1)-4*
G04 #@! TF.CreationDate,2019-08-19T00:57:11-04:00*
G04 #@! TF.ProjectId,KeebCard,4B656562436172642E6B696361645F70,rev?*
G04 #@! TF.SameCoordinates,Original*
G04 #@! TF.FileFunction,Legend,Top*
G04 #@! TF.FilePolarity,Positive*
%FSLAX46Y46*%
G04 Gerber Fmt 4.6, Leading zero omitted, Abs format (unit mm)*
G04 Created by KiCad (PCBNEW (5.0.1)-4) date 8/19/2019 12:57:11 AM*
%MOMM*%
%LPD*%
G01*
G04 APERTURE LIST*
%ADD10C,0.150000*%
%ADD11C,0.120000*%
%ADD12C,0.203200*%
%ADD13C,2.387400*%
%ADD14C,2.686000*%
%ADD15R,1.900000X1.700000*%
%ADD16R,1.650000X1.900000*%
%ADD17R,1.700000X1.900000*%
%ADD18R,1.050000X2.305000*%
%ADD19R,2.100000X2.100000*%
%ADD20O,2.100000X2.100000*%
%ADD21C,4.200000*%
G04 APERTURE END LIST*
D10*
G04 #@! TO.C,SW2*
X129921000Y-116967000D02*
X131191000Y-116967000D01*
X129921000Y-118237000D02*
X129921000Y-116967000D01*
X143891000Y-116967000D02*
X142621000Y-116967000D01*
X143891000Y-118237000D02*
X143891000Y-116967000D01*
X143891000Y-130937000D02*
X142621000Y-130937000D01*
X143891000Y-129667000D02*
X143891000Y-130937000D01*
X129921000Y-130937000D02*
X129921000Y-129667000D01*
X131191000Y-130937000D02*
X129921000Y-130937000D01*
G04 #@! TO.C,SW3*
X148971000Y-116967000D02*
X150241000Y-116967000D01*
X148971000Y-118237000D02*
X148971000Y-116967000D01*
X162941000Y-116967000D02*
X161671000Y-116967000D01*
X162941000Y-118237000D02*
X162941000Y-116967000D01*
X162941000Y-130937000D02*
X161671000Y-130937000D01*
X162941000Y-129667000D02*
X162941000Y-130937000D01*
X148971000Y-130937000D02*
X148971000Y-129667000D01*
X150241000Y-130937000D02*
X148971000Y-130937000D01*
G04 #@! TO.C,SW1*
X168021000Y-116967000D02*
X169291000Y-116967000D01*
X168021000Y-118237000D02*
X168021000Y-116967000D01*
X181991000Y-116967000D02*
X180721000Y-116967000D01*
X181991000Y-118237000D02*
X181991000Y-116967000D01*
X181991000Y-130937000D02*
X180721000Y-130937000D01*
X181991000Y-129667000D02*
X181991000Y-130937000D01*
X168021000Y-130937000D02*
X168021000Y-129667000D01*
X169291000Y-130937000D02*
X168021000Y-130937000D01*
D11*
G04 #@! TO.C,R1*
X140751000Y-114817000D02*
X141951000Y-114817000D01*
X141951000Y-116577000D02*
X140751000Y-116577000D01*
G04 #@! TO.C,R2*
X159801000Y-114817000D02*
X161001000Y-114817000D01*
X161001000Y-116577000D02*
X159801000Y-116577000D01*
G04 #@! TO.C,R3*
X178851000Y-114817000D02*
X180051000Y-114817000D01*
X180051000Y-116577000D02*
X178851000Y-116577000D01*
G04 #@! TO.C,C1*
X133516000Y-110752000D02*
X133516000Y-111752000D01*
X135216000Y-111752000D02*
X135216000Y-110752000D01*
G04 #@! TO.C,R4*
X133486000Y-104232000D02*
X133486000Y-103032000D01*
X135246000Y-103032000D02*
X135246000Y-104232000D01*
D10*
G04 #@! TO.C,U1*
X133081000Y-104712000D02*
X132876000Y-104712000D01*
X133081000Y-110212000D02*
X132781000Y-110212000D01*
X127571000Y-110212000D02*
X127871000Y-110212000D01*
X127571000Y-104712000D02*
X127871000Y-104712000D01*
X133081000Y-104712000D02*
X133081000Y-110212000D01*
X127571000Y-104712000D02*
X127571000Y-110212000D01*
X132876000Y-104712000D02*
X132876000Y-102012000D01*
D11*
G04 #@! TO.C,J1*
X183321000Y-104207000D02*
X178121000Y-104207000D01*
X183321000Y-109347000D02*
X183321000Y-104207000D01*
X178121000Y-111947000D02*
X178121000Y-104207000D01*
X183321000Y-109347000D02*
X180721000Y-109347000D01*
X180721000Y-109347000D02*
X180721000Y-111947000D01*
X180721000Y-111947000D02*
X178121000Y-111947000D01*
X183321000Y-110617000D02*
X183321000Y-111947000D01*
X183321000Y-111947000D02*
X181991000Y-111947000D01*
D10*
G04 #@! TO.C,DS1*
X138176000Y-112522000D02*
X138176000Y-102362000D01*
D11*
X138116000Y-112582000D02*
X140776000Y-112582000D01*
X138116000Y-104902000D02*
X138116000Y-112582000D01*
X140776000Y-104902000D02*
X140776000Y-112582000D01*
X138116000Y-104902000D02*
X140776000Y-104902000D01*
X138116000Y-103632000D02*
X138116000Y-102302000D01*
X138116000Y-102302000D02*
X139446000Y-102302000D01*
G04 #@! TO.C,SW2*
D12*
X131064000Y-119386047D02*
X131281714Y-119446523D01*
X131644571Y-119446523D01*
X131789714Y-119386047D01*
X131862285Y-119325571D01*
X131934857Y-119204619D01*
X131934857Y-119083666D01*
X131862285Y-118962714D01*
X131789714Y-118902238D01*
X131644571Y-118841761D01*
X131354285Y-118781285D01*
X131209142Y-118720809D01*
X131136571Y-118660333D01*
X131064000Y-118539380D01*
X131064000Y-118418428D01*
X131136571Y-118297476D01*
X131209142Y-118237000D01*
X131354285Y-118176523D01*
X131717142Y-118176523D01*
X131934857Y-118237000D01*
X132442857Y-118176523D02*
X132805714Y-119446523D01*
X133096000Y-118539380D01*
X133386285Y-119446523D01*
X133749142Y-118176523D01*
X134257142Y-118297476D02*
X134329714Y-118237000D01*
X134474857Y-118176523D01*
X134837714Y-118176523D01*
X134982857Y-118237000D01*
X135055428Y-118297476D01*
X135128000Y-118418428D01*
X135128000Y-118539380D01*
X135055428Y-118720809D01*
X134184571Y-119446523D01*
X135128000Y-119446523D01*
G04 #@! TO.C,SW3*
X150114000Y-119386047D02*
X150331714Y-119446523D01*
X150694571Y-119446523D01*
X150839714Y-119386047D01*
X150912285Y-119325571D01*
X150984857Y-119204619D01*
X150984857Y-119083666D01*
X150912285Y-118962714D01*
X150839714Y-118902238D01*
X150694571Y-118841761D01*
X150404285Y-118781285D01*
X150259142Y-118720809D01*
X150186571Y-118660333D01*
X150114000Y-118539380D01*
X150114000Y-118418428D01*
X150186571Y-118297476D01*
X150259142Y-118237000D01*
X150404285Y-118176523D01*
X150767142Y-118176523D01*
X150984857Y-118237000D01*
X151492857Y-118176523D02*
X151855714Y-119446523D01*
X152146000Y-118539380D01*
X152436285Y-119446523D01*
X152799142Y-118176523D01*
X153234571Y-118176523D02*
X154178000Y-118176523D01*
X153670000Y-118660333D01*
X153887714Y-118660333D01*
X154032857Y-118720809D01*
X154105428Y-118781285D01*
X154178000Y-118902238D01*
X154178000Y-119204619D01*
X154105428Y-119325571D01*
X154032857Y-119386047D01*
X153887714Y-119446523D01*
X153452285Y-119446523D01*
X153307142Y-119386047D01*
X153234571Y-119325571D01*
G04 #@! TO.C,SW1*
X169164000Y-119386047D02*
X169381714Y-119446523D01*
X169744571Y-119446523D01*
X169889714Y-119386047D01*
X169962285Y-119325571D01*
X170034857Y-119204619D01*
X170034857Y-119083666D01*
X169962285Y-118962714D01*
X169889714Y-118902238D01*
X169744571Y-118841761D01*
X169454285Y-118781285D01*
X169309142Y-118720809D01*
X169236571Y-118660333D01*
X169164000Y-118539380D01*
X169164000Y-118418428D01*
X169236571Y-118297476D01*
X169309142Y-118237000D01*
X169454285Y-118176523D01*
X169817142Y-118176523D01*
X170034857Y-118237000D01*
X170542857Y-118176523D02*
X170905714Y-119446523D01*
X171196000Y-118539380D01*
X171486285Y-119446523D01*
X171849142Y-118176523D01*
X173228000Y-119446523D02*
X172357142Y-119446523D01*
X172792571Y-119446523D02*
X172792571Y-118176523D01*
X172647428Y-118357952D01*
X172502285Y-118478904D01*
X172357142Y-118539380D01*
G04 #@! TO.C,R1*
D10*
X137374333Y-116149380D02*
X137041000Y-115673190D01*
X136802904Y-116149380D02*
X136802904Y-115149380D01*
X137183857Y-115149380D01*
X137279095Y-115197000D01*
X137326714Y-115244619D01*
X137374333Y-115339857D01*
X137374333Y-115482714D01*
X137326714Y-115577952D01*
X137279095Y-115625571D01*
X137183857Y-115673190D01*
X136802904Y-115673190D01*
X138326714Y-116149380D02*
X137755285Y-116149380D01*
X138041000Y-116149380D02*
X138041000Y-115149380D01*
X137945761Y-115292238D01*
X137850523Y-115387476D01*
X137755285Y-115435095D01*
G04 #@! TO.C,R2*
X156424333Y-116149380D02*
X156091000Y-115673190D01*
X155852904Y-116149380D02*
X155852904Y-115149380D01*
X156233857Y-115149380D01*
X156329095Y-115197000D01*
X156376714Y-115244619D01*
X156424333Y-115339857D01*
X156424333Y-115482714D01*
X156376714Y-115577952D01*
X156329095Y-115625571D01*
X156233857Y-115673190D01*
X155852904Y-115673190D01*
X156805285Y-115244619D02*
X156852904Y-115197000D01*
X156948142Y-115149380D01*
X157186238Y-115149380D01*
X157281476Y-115197000D01*
X157329095Y-115244619D01*
X157376714Y-115339857D01*
X157376714Y-115435095D01*
X157329095Y-115577952D01*
X156757666Y-116149380D01*
X157376714Y-116149380D01*
G04 #@! TO.C,R3*
X175474333Y-116149380D02*
X175141000Y-115673190D01*
X174902904Y-116149380D02*
X174902904Y-115149380D01*
X175283857Y-115149380D01*
X175379095Y-115197000D01*
X175426714Y-115244619D01*
X175474333Y-115339857D01*
X175474333Y-115482714D01*
X175426714Y-115577952D01*
X175379095Y-115625571D01*
X175283857Y-115673190D01*
X174902904Y-115673190D01*
X175807666Y-115149380D02*
X176426714Y-115149380D01*
X176093380Y-115530333D01*
X176236238Y-115530333D01*
X176331476Y-115577952D01*
X176379095Y-115625571D01*
X176426714Y-115720809D01*
X176426714Y-115958904D01*
X176379095Y-116054142D01*
X176331476Y-116101761D01*
X176236238Y-116149380D01*
X175950523Y-116149380D01*
X175855285Y-116101761D01*
X175807666Y-116054142D01*
G04 #@! TO.C,C1*
X136628142Y-111418666D02*
X136675761Y-111466285D01*
X136723380Y-111609142D01*
X136723380Y-111704380D01*
X136675761Y-111847238D01*
X136580523Y-111942476D01*
X136485285Y-111990095D01*
X136294809Y-112037714D01*
X136151952Y-112037714D01*
X135961476Y-111990095D01*
X135866238Y-111942476D01*
X135771000Y-111847238D01*
X135723380Y-111704380D01*
X135723380Y-111609142D01*
X135771000Y-111466285D01*
X135818619Y-111418666D01*
X136723380Y-110466285D02*
X136723380Y-111037714D01*
X136723380Y-110752000D02*
X135723380Y-110752000D01*
X135866238Y-110847238D01*
X135961476Y-110942476D01*
X136009095Y-111037714D01*
G04 #@! TO.C,R4*
X136723380Y-103798666D02*
X136247190Y-104132000D01*
X136723380Y-104370095D02*
X135723380Y-104370095D01*
X135723380Y-103989142D01*
X135771000Y-103893904D01*
X135818619Y-103846285D01*
X135913857Y-103798666D01*
X136056714Y-103798666D01*
X136151952Y-103846285D01*
X136199571Y-103893904D01*
X136247190Y-103989142D01*
X136247190Y-104370095D01*
X136056714Y-102941523D02*
X136723380Y-102941523D01*
X135675761Y-103179619D02*
X136390047Y-103417714D01*
X136390047Y-102798666D01*
G04 #@! TO.C,U1*
X131683380Y-109493904D02*
X132492904Y-109493904D01*
X132588142Y-109446285D01*
X132635761Y-109398666D01*
X132683380Y-109303428D01*
X132683380Y-109112952D01*
X132635761Y-109017714D01*
X132588142Y-108970095D01*
X132492904Y-108922476D01*
X131683380Y-108922476D01*
X132683380Y-107922476D02*
X132683380Y-108493904D01*
X132683380Y-108208190D02*
X131683380Y-108208190D01*
X131826238Y-108303428D01*
X131921476Y-108398666D01*
X131969095Y-108493904D01*
G04 #@! TO.C,J1*
X180387666Y-112399380D02*
X180387666Y-113113666D01*
X180340047Y-113256523D01*
X180244809Y-113351761D01*
X180101952Y-113399380D01*
X180006714Y-113399380D01*
X181387666Y-113399380D02*
X180816238Y-113399380D01*
X181101952Y-113399380D02*
X181101952Y-112399380D01*
X181006714Y-112542238D01*
X180911476Y-112637476D01*
X180816238Y-112685095D01*
G04 #@! TO.C,DS1*
X142438380Y-108656285D02*
X141438380Y-108656285D01*
X141438380Y-108418190D01*
X141486000Y-108275333D01*
X141581238Y-108180095D01*
X141676476Y-108132476D01*
X141866952Y-108084857D01*
X142009809Y-108084857D01*
X142200285Y-108132476D01*
X142295523Y-108180095D01*
X142390761Y-108275333D01*
X142438380Y-108418190D01*
X142438380Y-108656285D01*
X142390761Y-107703904D02*
X142438380Y-107561047D01*
X142438380Y-107322952D01*
X142390761Y-107227714D01*
X142343142Y-107180095D01*
X142247904Y-107132476D01*
X142152666Y-107132476D01*
X142057428Y-107180095D01*
X142009809Y-107227714D01*
X141962190Y-107322952D01*
X141914571Y-107513428D01*
X141866952Y-107608666D01*
X141819333Y-107656285D01*
X141724095Y-107703904D01*
X141628857Y-107703904D01*
X141533619Y-107656285D01*
X141486000Y-107608666D01*
X141438380Y-107513428D01*
X141438380Y-107275333D01*
X141486000Y-107132476D01*
X142438380Y-106180095D02*
X142438380Y-106751523D01*
X142438380Y-106465809D02*
X141438380Y-106465809D01*
X141581238Y-106561047D01*
X141676476Y-106656285D01*
X141724095Y-106751523D01*
G04 #@! TD*
%LPC*%
D13*
G04 #@! TO.C,SW2*
X131906000Y-127752000D03*
X136906000Y-129852000D03*
D14*
X134366000Y-129032000D03*
X140716000Y-126492000D03*
G04 #@! TD*
D13*
G04 #@! TO.C,SW3*
X150956000Y-127752000D03*
X155956000Y-129852000D03*
D14*
X153416000Y-129032000D03*
X159766000Y-126492000D03*
G04 #@! TD*
D13*
G04 #@! TO.C,SW1*
X170006000Y-127752000D03*
X175006000Y-129852000D03*
D14*
X172466000Y-129032000D03*
X178816000Y-126492000D03*
G04 #@! TD*
D15*
G04 #@! TO.C,R1*
X142701000Y-115697000D03*
X140001000Y-115697000D03*
G04 #@! TD*
G04 #@! TO.C,R2*
X161751000Y-115697000D03*
X159051000Y-115697000D03*
G04 #@! TD*
G04 #@! TO.C,R3*
X180801000Y-115697000D03*
X178101000Y-115697000D03*
G04 #@! TD*
D16*
G04 #@! TO.C,C1*
X134366000Y-112502000D03*
X134366000Y-110002000D03*
G04 #@! TD*
D17*
G04 #@! TO.C,R4*
X134366000Y-102282000D03*
X134366000Y-104982000D03*
G04 #@! TD*
D18*
G04 #@! TO.C,U1*
X132231000Y-102962000D03*
X130961000Y-102962000D03*
X129691000Y-102962000D03*
X128421000Y-102962000D03*
X128421000Y-111962000D03*
X129691000Y-111962000D03*
X130961000Y-111962000D03*
X132231000Y-111962000D03*
G04 #@! TD*
D19*
G04 #@! TO.C,J1*
X181991000Y-110617000D03*
D20*
X179451000Y-110617000D03*
X181991000Y-108077000D03*
X179451000Y-108077000D03*
X181991000Y-105537000D03*
X179451000Y-105537000D03*
G04 #@! TD*
D19*
G04 #@! TO.C,DS1*
X139446000Y-103632000D03*
D20*
X139446000Y-106172000D03*
X139446000Y-108712000D03*
X139446000Y-111252000D03*
G04 #@! TD*
D21*
G04 #@! TO.C,REF\002A\002A*
X183642000Y-101346000D03*
G04 #@! TD*
M02*
