G04 #@! TF.GenerationSoftware,KiCad,Pcbnew,(5.0.1)-4*
G04 #@! TF.CreationDate,2019-08-19T00:57:11-04:00*
G04 #@! TF.ProjectId,KeebCard,4B656562436172642E6B696361645F70,rev?*
G04 #@! TF.SameCoordinates,Original*
G04 #@! TF.FileFunction,Legend,Bot*
G04 #@! TF.FilePolarity,Positive*
%FSLAX46Y46*%
G04 Gerber Fmt 4.6, Leading zero omitted, Abs format (unit mm)*
G04 Created by KiCad (PCBNEW (5.0.1)-4) date 8/19/2019 12:57:11 AM*
%MOMM*%
%LPD*%
G01*
G04 APERTURE LIST*
%ADD10C,0.100000*%
%ADD11C,0.120000*%
%ADD12C,0.254000*%
%ADD13C,0.150000*%
%ADD14C,2.387400*%
%ADD15C,2.686000*%
%ADD16R,3.000000X3.900000*%
%ADD17R,2.100000X2.100000*%
%ADD18O,2.100000X2.100000*%
%ADD19R,1.900000X1.700000*%
%ADD20C,4.200000*%
G04 APERTURE END LIST*
D10*
G04 #@! TO.C,BT1*
X147226000Y-116022000D02*
X142976000Y-116022000D01*
X149606000Y-120572000D02*
X147226000Y-116022000D01*
X164846000Y-120572000D02*
X149606000Y-120572000D01*
X167226000Y-116022000D02*
X164846000Y-120572000D01*
X171476000Y-116022000D02*
X167226000Y-116022000D01*
X147226000Y-109022000D02*
X142976000Y-109022000D01*
X149606000Y-104472000D02*
X147226000Y-109022000D01*
X164846000Y-104472000D02*
X149606000Y-104472000D01*
X167226000Y-109022000D02*
X164846000Y-104472000D01*
X171476000Y-109022000D02*
X167226000Y-109022000D01*
D11*
G04 #@! TO.C,R5*
X145126000Y-105292000D02*
X143926000Y-105292000D01*
X143926000Y-107052000D02*
X145126000Y-107052000D01*
G04 #@! TO.C,R6*
X145126000Y-102752000D02*
X143926000Y-102752000D01*
X143926000Y-104512000D02*
X145126000Y-104512000D01*
G04 #@! TO.C,BT1*
D12*
X158223857Y-105446285D02*
X158042428Y-105506761D01*
X157981952Y-105567238D01*
X157921476Y-105688190D01*
X157921476Y-105869619D01*
X157981952Y-105990571D01*
X158042428Y-106051047D01*
X158163380Y-106111523D01*
X158647190Y-106111523D01*
X158647190Y-104841523D01*
X158223857Y-104841523D01*
X158102904Y-104902000D01*
X158042428Y-104962476D01*
X157981952Y-105083428D01*
X157981952Y-105204380D01*
X158042428Y-105325333D01*
X158102904Y-105385809D01*
X158223857Y-105446285D01*
X158647190Y-105446285D01*
X157558619Y-104841523D02*
X156832904Y-104841523D01*
X157195761Y-106111523D02*
X157195761Y-104841523D01*
X155744333Y-106111523D02*
X156470047Y-106111523D01*
X156107190Y-106111523D02*
X156107190Y-104841523D01*
X156228142Y-105022952D01*
X156349095Y-105143904D01*
X156470047Y-105204380D01*
D13*
X148716952Y-112593428D02*
X147955047Y-112593428D01*
X166496952Y-112593428D02*
X165735047Y-112593428D01*
X166116000Y-112974380D02*
X166116000Y-112212476D01*
G04 #@! TO.C,R5*
X144692666Y-108529380D02*
X145026000Y-108053190D01*
X145264095Y-108529380D02*
X145264095Y-107529380D01*
X144883142Y-107529380D01*
X144787904Y-107577000D01*
X144740285Y-107624619D01*
X144692666Y-107719857D01*
X144692666Y-107862714D01*
X144740285Y-107957952D01*
X144787904Y-108005571D01*
X144883142Y-108053190D01*
X145264095Y-108053190D01*
X143787904Y-107529380D02*
X144264095Y-107529380D01*
X144311714Y-108005571D01*
X144264095Y-107957952D01*
X144168857Y-107910333D01*
X143930761Y-107910333D01*
X143835523Y-107957952D01*
X143787904Y-108005571D01*
X143740285Y-108100809D01*
X143740285Y-108338904D01*
X143787904Y-108434142D01*
X143835523Y-108481761D01*
X143930761Y-108529380D01*
X144168857Y-108529380D01*
X144264095Y-108481761D01*
X144311714Y-108434142D01*
G04 #@! TO.C,R6*
X144692666Y-102179380D02*
X145026000Y-101703190D01*
X145264095Y-102179380D02*
X145264095Y-101179380D01*
X144883142Y-101179380D01*
X144787904Y-101227000D01*
X144740285Y-101274619D01*
X144692666Y-101369857D01*
X144692666Y-101512714D01*
X144740285Y-101607952D01*
X144787904Y-101655571D01*
X144883142Y-101703190D01*
X145264095Y-101703190D01*
X143835523Y-101179380D02*
X144026000Y-101179380D01*
X144121238Y-101227000D01*
X144168857Y-101274619D01*
X144264095Y-101417476D01*
X144311714Y-101607952D01*
X144311714Y-101988904D01*
X144264095Y-102084142D01*
X144216476Y-102131761D01*
X144121238Y-102179380D01*
X143930761Y-102179380D01*
X143835523Y-102131761D01*
X143787904Y-102084142D01*
X143740285Y-101988904D01*
X143740285Y-101750809D01*
X143787904Y-101655571D01*
X143835523Y-101607952D01*
X143930761Y-101560333D01*
X144121238Y-101560333D01*
X144216476Y-101607952D01*
X144264095Y-101655571D01*
X144311714Y-101750809D01*
G04 #@! TD*
%LPC*%
D14*
G04 #@! TO.C,SW2*
X131906000Y-127752000D03*
X136906000Y-129852000D03*
D15*
X134366000Y-129032000D03*
X140716000Y-126492000D03*
G04 #@! TD*
D14*
G04 #@! TO.C,SW3*
X150956000Y-127752000D03*
X155956000Y-129852000D03*
D15*
X153416000Y-129032000D03*
X159766000Y-126492000D03*
G04 #@! TD*
D14*
G04 #@! TO.C,SW1*
X170006000Y-127752000D03*
X175006000Y-129852000D03*
D15*
X172466000Y-129032000D03*
X178816000Y-126492000D03*
G04 #@! TD*
D16*
G04 #@! TO.C,BT1*
X142526000Y-112522000D03*
X171926000Y-112522000D03*
G04 #@! TD*
D17*
G04 #@! TO.C,J1*
X181991000Y-110617000D03*
D18*
X179451000Y-110617000D03*
X181991000Y-108077000D03*
X179451000Y-108077000D03*
X181991000Y-105537000D03*
X179451000Y-105537000D03*
G04 #@! TD*
D19*
G04 #@! TO.C,R5*
X143176000Y-106172000D03*
X145876000Y-106172000D03*
G04 #@! TD*
G04 #@! TO.C,R6*
X143176000Y-103632000D03*
X145876000Y-103632000D03*
G04 #@! TD*
D17*
G04 #@! TO.C,DS1*
X139446000Y-103632000D03*
D18*
X139446000Y-106172000D03*
X139446000Y-108712000D03*
X139446000Y-111252000D03*
G04 #@! TD*
D20*
G04 #@! TO.C,REF\002A\002A*
X183642000Y-101346000D03*
G04 #@! TD*
M02*
