G04 #@! TF.GenerationSoftware,KiCad,Pcbnew,(5.0.1)-4*
G04 #@! TF.CreationDate,2019-08-19T00:57:11-04:00*
G04 #@! TF.ProjectId,KeebCard,4B656562436172642E6B696361645F70,rev?*
G04 #@! TF.SameCoordinates,Original*
G04 #@! TF.FileFunction,Copper,L2,Bot,Signal*
G04 #@! TF.FilePolarity,Positive*
%FSLAX46Y46*%
G04 Gerber Fmt 4.6, Leading zero omitted, Abs format (unit mm)*
G04 Created by KiCad (PCBNEW (5.0.1)-4) date 8/19/2019 12:57:11 AM*
%MOMM*%
%LPD*%
G01*
G04 APERTURE LIST*
G04 #@! TA.AperFunction,ComponentPad*
%ADD10C,1.987400*%
G04 #@! TD*
G04 #@! TA.AperFunction,ComponentPad*
%ADD11C,2.286000*%
G04 #@! TD*
G04 #@! TA.AperFunction,SMDPad,CuDef*
%ADD12R,2.600000X3.500000*%
G04 #@! TD*
G04 #@! TA.AperFunction,ComponentPad*
%ADD13R,1.700000X1.700000*%
G04 #@! TD*
G04 #@! TA.AperFunction,ComponentPad*
%ADD14O,1.700000X1.700000*%
G04 #@! TD*
G04 #@! TA.AperFunction,SMDPad,CuDef*
%ADD15R,1.500000X1.300000*%
G04 #@! TD*
G04 #@! TA.AperFunction,ComponentPad*
%ADD16C,3.800000*%
G04 #@! TD*
G04 #@! TA.AperFunction,ViaPad*
%ADD17C,0.600000*%
G04 #@! TD*
G04 #@! TA.AperFunction,Conductor*
%ADD18C,0.508000*%
G04 #@! TD*
G04 #@! TA.AperFunction,Conductor*
%ADD19C,0.406400*%
G04 #@! TD*
G04 #@! TA.AperFunction,Conductor*
%ADD20C,0.254000*%
G04 #@! TD*
G04 APERTURE END LIST*
D10*
G04 #@! TO.P,SW2,2*
G04 #@! TO.N,/PB3*
X131906000Y-127752000D03*
G04 #@! TO.P,SW2,1*
G04 #@! TO.N,GND*
X136906000Y-129852000D03*
D11*
X134366000Y-129032000D03*
G04 #@! TO.P,SW2,2*
G04 #@! TO.N,/PB3*
X140716000Y-126492000D03*
G04 #@! TD*
D10*
G04 #@! TO.P,SW3,2*
G04 #@! TO.N,/PB4*
X150956000Y-127752000D03*
G04 #@! TO.P,SW3,1*
G04 #@! TO.N,GND*
X155956000Y-129852000D03*
D11*
X153416000Y-129032000D03*
G04 #@! TO.P,SW3,2*
G04 #@! TO.N,/PB4*
X159766000Y-126492000D03*
G04 #@! TD*
D10*
G04 #@! TO.P,SW1,2*
G04 #@! TO.N,/PB1*
X170006000Y-127752000D03*
G04 #@! TO.P,SW1,1*
G04 #@! TO.N,GND*
X175006000Y-129852000D03*
D11*
X172466000Y-129032000D03*
G04 #@! TO.P,SW1,2*
G04 #@! TO.N,/PB1*
X178816000Y-126492000D03*
G04 #@! TD*
D12*
G04 #@! TO.P,BT1,2*
G04 #@! TO.N,GND*
X142526000Y-112522000D03*
G04 #@! TO.P,BT1,1*
G04 #@! TO.N,VCC*
X171926000Y-112522000D03*
G04 #@! TD*
D13*
G04 #@! TO.P,J1,1*
G04 #@! TO.N,/PB1*
X181991000Y-110617000D03*
D14*
G04 #@! TO.P,J1,2*
G04 #@! TO.N,VCC*
X179451000Y-110617000D03*
G04 #@! TO.P,J1,3*
G04 #@! TO.N,/PB2*
X181991000Y-108077000D03*
G04 #@! TO.P,J1,4*
G04 #@! TO.N,/PB0*
X179451000Y-108077000D03*
G04 #@! TO.P,J1,5*
G04 #@! TO.N,/PB5*
X181991000Y-105537000D03*
G04 #@! TO.P,J1,6*
G04 #@! TO.N,GND*
X179451000Y-105537000D03*
G04 #@! TD*
D15*
G04 #@! TO.P,R5,1*
G04 #@! TO.N,/PB2*
X143176000Y-106172000D03*
G04 #@! TO.P,R5,2*
G04 #@! TO.N,VCC*
X145876000Y-106172000D03*
G04 #@! TD*
G04 #@! TO.P,R6,1*
G04 #@! TO.N,/PB0*
X143176000Y-103632000D03*
G04 #@! TO.P,R6,2*
G04 #@! TO.N,VCC*
X145876000Y-103632000D03*
G04 #@! TD*
D13*
G04 #@! TO.P,DS1,4*
G04 #@! TO.N,/PB0*
X139446000Y-103632000D03*
D14*
G04 #@! TO.P,DS1,3*
G04 #@! TO.N,/PB2*
X139446000Y-106172000D03*
G04 #@! TO.P,DS1,2*
G04 #@! TO.N,VCC*
X139446000Y-108712000D03*
G04 #@! TO.P,DS1,1*
G04 #@! TO.N,GND*
X139446000Y-111252000D03*
G04 #@! TD*
D16*
G04 #@! TO.P,REF\002A\002A,1*
G04 #@! TO.N,N/C*
X183642000Y-101346000D03*
G04 #@! TD*
D17*
G04 #@! TO.N,/PB2*
X175641000Y-108712000D03*
X154051000Y-108712000D03*
G04 #@! TO.N,/PB3*
X138176000Y-115697000D03*
X132461000Y-106172000D03*
G04 #@! TO.N,/PB5*
X170561000Y-105537000D03*
X148971000Y-105537000D03*
X137541000Y-101092000D03*
X144526000Y-101092000D03*
G04 #@! TO.N,/PB1*
X169926000Y-120777000D03*
X133731000Y-120777000D03*
G04 #@! TO.N,/PB4*
X153416000Y-117602000D03*
X138176000Y-117602000D03*
X133096000Y-116332000D03*
X131191000Y-107442000D03*
G04 #@! TO.N,VCC*
X163576000Y-115697000D03*
X182626000Y-115697000D03*
X145161000Y-115697000D03*
X136271000Y-112522000D03*
X136271000Y-104902000D03*
G04 #@! TD*
D18*
G04 #@! TO.N,GND*
X139446000Y-111252000D02*
X142526000Y-111252000D01*
G04 #@! TO.N,/PB2*
X139446000Y-106172000D02*
X143176000Y-106172000D01*
D19*
X143176000Y-106172000D02*
X143176000Y-107362000D01*
X180721000Y-109347000D02*
X181991000Y-108077000D01*
X176276000Y-109347000D02*
X180721000Y-109347000D01*
X175641000Y-108712000D02*
X176276000Y-109347000D01*
X144526000Y-108712000D02*
X154051000Y-108712000D01*
X143176000Y-107362000D02*
X144526000Y-108712000D01*
D18*
G04 #@! TO.N,/PB0*
X139446000Y-103632000D02*
X143176000Y-103632000D01*
X143176000Y-103632000D02*
X143176000Y-103077000D01*
X173736000Y-102362000D02*
X178816000Y-107442000D01*
X143891000Y-102362000D02*
X173736000Y-102362000D01*
X143176000Y-103077000D02*
X143891000Y-102362000D01*
D19*
G04 #@! TO.N,/PB3*
X136271000Y-115697000D02*
X138176000Y-115697000D01*
X134366000Y-113792000D02*
X136271000Y-115697000D01*
X134366000Y-108077000D02*
X134366000Y-113792000D01*
X132461000Y-106172000D02*
X134366000Y-108077000D01*
G04 #@! TO.N,/PB5*
X148971000Y-105537000D02*
X170561000Y-105537000D01*
X137541000Y-101092000D02*
X144526000Y-101092000D01*
G04 #@! TO.N,/PB1*
X169926000Y-120777000D02*
X133731000Y-120777000D01*
G04 #@! TO.N,/PB4*
X138176000Y-117602000D02*
X153416000Y-117602000D01*
X133096000Y-109347000D02*
X133096000Y-116332000D01*
X131191000Y-107442000D02*
X133096000Y-109347000D01*
G04 #@! TD*
D20*
G04 #@! TO.N,VCC*
G36*
X181492930Y-99910038D02*
X181107000Y-100841757D01*
X181107000Y-101850243D01*
X181492930Y-102781962D01*
X182206038Y-103495070D01*
X183137757Y-103881000D01*
X184146243Y-103881000D01*
X185077962Y-103495070D01*
X185726001Y-102847031D01*
X185726000Y-132797333D01*
X185663042Y-133295699D01*
X185494697Y-133720889D01*
X185225899Y-134090859D01*
X184873541Y-134382355D01*
X184459756Y-134577067D01*
X183977339Y-134669093D01*
X183884836Y-134672000D01*
X128060667Y-134672000D01*
X127562301Y-134609042D01*
X127137111Y-134440697D01*
X126767141Y-134171899D01*
X126475645Y-133819541D01*
X126280933Y-133405756D01*
X126188907Y-132923339D01*
X126186000Y-132830836D01*
X126186000Y-127428031D01*
X130277300Y-127428031D01*
X130277300Y-128075969D01*
X130525255Y-128674584D01*
X130983416Y-129132745D01*
X131582031Y-129380700D01*
X132229969Y-129380700D01*
X132588000Y-129232398D01*
X132588000Y-129385666D01*
X132858684Y-130039156D01*
X133358844Y-130539316D01*
X134012334Y-130810000D01*
X134719666Y-130810000D01*
X135373156Y-130539316D01*
X135411798Y-130500674D01*
X135525255Y-130774584D01*
X135983416Y-131232745D01*
X136582031Y-131480700D01*
X137229969Y-131480700D01*
X137828584Y-131232745D01*
X138286745Y-130774584D01*
X138534700Y-130175969D01*
X138534700Y-129528031D01*
X138286745Y-128929416D01*
X137828584Y-128471255D01*
X137229969Y-128223300D01*
X136582031Y-128223300D01*
X136047270Y-128444806D01*
X135873316Y-128024844D01*
X135373156Y-127524684D01*
X134719666Y-127254000D01*
X134012334Y-127254000D01*
X133534700Y-127451842D01*
X133534700Y-127428031D01*
X133286745Y-126829416D01*
X132828584Y-126371255D01*
X132229969Y-126123300D01*
X131582031Y-126123300D01*
X130983416Y-126371255D01*
X130525255Y-126829416D01*
X130277300Y-127428031D01*
X126186000Y-127428031D01*
X126186000Y-123952000D01*
X129939949Y-123952000D01*
X130062964Y-124570436D01*
X130413279Y-125094721D01*
X130937564Y-125445036D01*
X131399897Y-125537000D01*
X131883003Y-125537000D01*
X132345336Y-125445036D01*
X132869621Y-125094721D01*
X133219936Y-124570436D01*
X133342951Y-123952000D01*
X133219936Y-123333564D01*
X132869621Y-122809279D01*
X132345336Y-122458964D01*
X131883003Y-122367000D01*
X131399897Y-122367000D01*
X130937564Y-122458964D01*
X130413279Y-122809279D01*
X130062964Y-123333564D01*
X129939949Y-123952000D01*
X126186000Y-123952000D01*
X126186000Y-120591017D01*
X132796000Y-120591017D01*
X132796000Y-120962983D01*
X132938345Y-121306635D01*
X133201365Y-121569655D01*
X133545017Y-121712000D01*
X133916983Y-121712000D01*
X134150679Y-121615200D01*
X135677887Y-121615200D01*
X135416848Y-121723326D01*
X134677326Y-122462848D01*
X134277100Y-123429079D01*
X134277100Y-124474921D01*
X134677326Y-125441152D01*
X135416848Y-126180674D01*
X136383079Y-126580900D01*
X137428921Y-126580900D01*
X138395152Y-126180674D01*
X138437492Y-126138334D01*
X138938000Y-126138334D01*
X138938000Y-126845666D01*
X139208684Y-127499156D01*
X139708844Y-127999316D01*
X140362334Y-128270000D01*
X141069666Y-128270000D01*
X141723156Y-127999316D01*
X142223316Y-127499156D01*
X142252776Y-127428031D01*
X149327300Y-127428031D01*
X149327300Y-128075969D01*
X149575255Y-128674584D01*
X150033416Y-129132745D01*
X150632031Y-129380700D01*
X151279969Y-129380700D01*
X151638000Y-129232398D01*
X151638000Y-129385666D01*
X151908684Y-130039156D01*
X152408844Y-130539316D01*
X153062334Y-130810000D01*
X153769666Y-130810000D01*
X154423156Y-130539316D01*
X154461798Y-130500674D01*
X154575255Y-130774584D01*
X155033416Y-131232745D01*
X155632031Y-131480700D01*
X156279969Y-131480700D01*
X156878584Y-131232745D01*
X157336745Y-130774584D01*
X157584700Y-130175969D01*
X157584700Y-129528031D01*
X157336745Y-128929416D01*
X156878584Y-128471255D01*
X156279969Y-128223300D01*
X155632031Y-128223300D01*
X155097270Y-128444806D01*
X154923316Y-128024844D01*
X154423156Y-127524684D01*
X153769666Y-127254000D01*
X153062334Y-127254000D01*
X152584700Y-127451842D01*
X152584700Y-127428031D01*
X152336745Y-126829416D01*
X151878584Y-126371255D01*
X151279969Y-126123300D01*
X150632031Y-126123300D01*
X150033416Y-126371255D01*
X149575255Y-126829416D01*
X149327300Y-127428031D01*
X142252776Y-127428031D01*
X142494000Y-126845666D01*
X142494000Y-126138334D01*
X142244920Y-125537000D01*
X142412103Y-125537000D01*
X142874436Y-125445036D01*
X143398721Y-125094721D01*
X143749036Y-124570436D01*
X143872051Y-123952000D01*
X148989949Y-123952000D01*
X149112964Y-124570436D01*
X149463279Y-125094721D01*
X149987564Y-125445036D01*
X150449897Y-125537000D01*
X150933003Y-125537000D01*
X151395336Y-125445036D01*
X151919621Y-125094721D01*
X152269936Y-124570436D01*
X152392951Y-123952000D01*
X152269936Y-123333564D01*
X151919621Y-122809279D01*
X151395336Y-122458964D01*
X150933003Y-122367000D01*
X150449897Y-122367000D01*
X149987564Y-122458964D01*
X149463279Y-122809279D01*
X149112964Y-123333564D01*
X148989949Y-123952000D01*
X143872051Y-123952000D01*
X143749036Y-123333564D01*
X143398721Y-122809279D01*
X142874436Y-122458964D01*
X142412103Y-122367000D01*
X141928997Y-122367000D01*
X141466664Y-122458964D01*
X140942379Y-122809279D01*
X140592064Y-123333564D01*
X140469049Y-123952000D01*
X140592064Y-124570436D01*
X140687990Y-124714000D01*
X140362334Y-124714000D01*
X139708844Y-124984684D01*
X139208684Y-125484844D01*
X138938000Y-126138334D01*
X138437492Y-126138334D01*
X139134674Y-125441152D01*
X139534900Y-124474921D01*
X139534900Y-123429079D01*
X139134674Y-122462848D01*
X138395152Y-121723326D01*
X138134113Y-121615200D01*
X154727887Y-121615200D01*
X154466848Y-121723326D01*
X153727326Y-122462848D01*
X153327100Y-123429079D01*
X153327100Y-124474921D01*
X153727326Y-125441152D01*
X154466848Y-126180674D01*
X155433079Y-126580900D01*
X156478921Y-126580900D01*
X157445152Y-126180674D01*
X157487492Y-126138334D01*
X157988000Y-126138334D01*
X157988000Y-126845666D01*
X158258684Y-127499156D01*
X158758844Y-127999316D01*
X159412334Y-128270000D01*
X160119666Y-128270000D01*
X160773156Y-127999316D01*
X161273316Y-127499156D01*
X161302776Y-127428031D01*
X168377300Y-127428031D01*
X168377300Y-128075969D01*
X168625255Y-128674584D01*
X169083416Y-129132745D01*
X169682031Y-129380700D01*
X170329969Y-129380700D01*
X170688000Y-129232398D01*
X170688000Y-129385666D01*
X170958684Y-130039156D01*
X171458844Y-130539316D01*
X172112334Y-130810000D01*
X172819666Y-130810000D01*
X173473156Y-130539316D01*
X173511798Y-130500674D01*
X173625255Y-130774584D01*
X174083416Y-131232745D01*
X174682031Y-131480700D01*
X175329969Y-131480700D01*
X175928584Y-131232745D01*
X176386745Y-130774584D01*
X176634700Y-130175969D01*
X176634700Y-129528031D01*
X176386745Y-128929416D01*
X175928584Y-128471255D01*
X175329969Y-128223300D01*
X174682031Y-128223300D01*
X174147270Y-128444806D01*
X173973316Y-128024844D01*
X173473156Y-127524684D01*
X172819666Y-127254000D01*
X172112334Y-127254000D01*
X171634700Y-127451842D01*
X171634700Y-127428031D01*
X171386745Y-126829416D01*
X170928584Y-126371255D01*
X170329969Y-126123300D01*
X169682031Y-126123300D01*
X169083416Y-126371255D01*
X168625255Y-126829416D01*
X168377300Y-127428031D01*
X161302776Y-127428031D01*
X161544000Y-126845666D01*
X161544000Y-126138334D01*
X161294920Y-125537000D01*
X161462103Y-125537000D01*
X161924436Y-125445036D01*
X162448721Y-125094721D01*
X162799036Y-124570436D01*
X162922051Y-123952000D01*
X168039949Y-123952000D01*
X168162964Y-124570436D01*
X168513279Y-125094721D01*
X169037564Y-125445036D01*
X169499897Y-125537000D01*
X169983003Y-125537000D01*
X170445336Y-125445036D01*
X170969621Y-125094721D01*
X171319936Y-124570436D01*
X171442951Y-123952000D01*
X171338936Y-123429079D01*
X172377100Y-123429079D01*
X172377100Y-124474921D01*
X172777326Y-125441152D01*
X173516848Y-126180674D01*
X174483079Y-126580900D01*
X175528921Y-126580900D01*
X176495152Y-126180674D01*
X176537492Y-126138334D01*
X177038000Y-126138334D01*
X177038000Y-126845666D01*
X177308684Y-127499156D01*
X177808844Y-127999316D01*
X178462334Y-128270000D01*
X179169666Y-128270000D01*
X179823156Y-127999316D01*
X180323316Y-127499156D01*
X180594000Y-126845666D01*
X180594000Y-126138334D01*
X180344920Y-125537000D01*
X180512103Y-125537000D01*
X180974436Y-125445036D01*
X181498721Y-125094721D01*
X181849036Y-124570436D01*
X181972051Y-123952000D01*
X181849036Y-123333564D01*
X181498721Y-122809279D01*
X180974436Y-122458964D01*
X180512103Y-122367000D01*
X180028997Y-122367000D01*
X179566664Y-122458964D01*
X179042379Y-122809279D01*
X178692064Y-123333564D01*
X178569049Y-123952000D01*
X178692064Y-124570436D01*
X178787990Y-124714000D01*
X178462334Y-124714000D01*
X177808844Y-124984684D01*
X177308684Y-125484844D01*
X177038000Y-126138334D01*
X176537492Y-126138334D01*
X177234674Y-125441152D01*
X177634900Y-124474921D01*
X177634900Y-123429079D01*
X177234674Y-122462848D01*
X176495152Y-121723326D01*
X175528921Y-121323100D01*
X174483079Y-121323100D01*
X173516848Y-121723326D01*
X172777326Y-122462848D01*
X172377100Y-123429079D01*
X171338936Y-123429079D01*
X171319936Y-123333564D01*
X170969621Y-122809279D01*
X170445336Y-122458964D01*
X169983003Y-122367000D01*
X169499897Y-122367000D01*
X169037564Y-122458964D01*
X168513279Y-122809279D01*
X168162964Y-123333564D01*
X168039949Y-123952000D01*
X162922051Y-123952000D01*
X162799036Y-123333564D01*
X162448721Y-122809279D01*
X161924436Y-122458964D01*
X161462103Y-122367000D01*
X160978997Y-122367000D01*
X160516664Y-122458964D01*
X159992379Y-122809279D01*
X159642064Y-123333564D01*
X159519049Y-123952000D01*
X159642064Y-124570436D01*
X159737990Y-124714000D01*
X159412334Y-124714000D01*
X158758844Y-124984684D01*
X158258684Y-125484844D01*
X157988000Y-126138334D01*
X157487492Y-126138334D01*
X158184674Y-125441152D01*
X158584900Y-124474921D01*
X158584900Y-123429079D01*
X158184674Y-122462848D01*
X157445152Y-121723326D01*
X157184113Y-121615200D01*
X169506321Y-121615200D01*
X169740017Y-121712000D01*
X170111983Y-121712000D01*
X170455635Y-121569655D01*
X170718655Y-121306635D01*
X170861000Y-120962983D01*
X170861000Y-120591017D01*
X170718655Y-120247365D01*
X170455635Y-119984345D01*
X170111983Y-119842000D01*
X169740017Y-119842000D01*
X169506321Y-119938800D01*
X134150679Y-119938800D01*
X133916983Y-119842000D01*
X133545017Y-119842000D01*
X133201365Y-119984345D01*
X132938345Y-120247365D01*
X132796000Y-120591017D01*
X126186000Y-120591017D01*
X126186000Y-117416017D01*
X137241000Y-117416017D01*
X137241000Y-117787983D01*
X137383345Y-118131635D01*
X137646365Y-118394655D01*
X137990017Y-118537000D01*
X138361983Y-118537000D01*
X138595679Y-118440200D01*
X152996321Y-118440200D01*
X153230017Y-118537000D01*
X153601983Y-118537000D01*
X153945635Y-118394655D01*
X154208655Y-118131635D01*
X154351000Y-117787983D01*
X154351000Y-117416017D01*
X154208655Y-117072365D01*
X153945635Y-116809345D01*
X153601983Y-116667000D01*
X153230017Y-116667000D01*
X152996321Y-116763800D01*
X138595679Y-116763800D01*
X138361983Y-116667000D01*
X137990017Y-116667000D01*
X137646365Y-116809345D01*
X137383345Y-117072365D01*
X137241000Y-117416017D01*
X126186000Y-117416017D01*
X126186000Y-107256017D01*
X130256000Y-107256017D01*
X130256000Y-107627983D01*
X130398345Y-107971635D01*
X130661365Y-108234655D01*
X130895062Y-108331455D01*
X132257800Y-109694194D01*
X132257801Y-115912318D01*
X132161000Y-116146017D01*
X132161000Y-116517983D01*
X132303345Y-116861635D01*
X132566365Y-117124655D01*
X132910017Y-117267000D01*
X133281983Y-117267000D01*
X133625635Y-117124655D01*
X133888655Y-116861635D01*
X134031000Y-116517983D01*
X134031000Y-116146017D01*
X133934200Y-115912321D01*
X133934200Y-114545593D01*
X135619930Y-116231324D01*
X135666692Y-116301308D01*
X135736676Y-116348070D01*
X135736677Y-116348071D01*
X135836176Y-116414554D01*
X135943951Y-116486567D01*
X136188446Y-116535200D01*
X136188451Y-116535200D01*
X136271000Y-116551620D01*
X136353549Y-116535200D01*
X137756321Y-116535200D01*
X137990017Y-116632000D01*
X138361983Y-116632000D01*
X138705635Y-116489655D01*
X138968655Y-116226635D01*
X139111000Y-115882983D01*
X139111000Y-115511017D01*
X138968655Y-115167365D01*
X138705635Y-114904345D01*
X138361983Y-114762000D01*
X137990017Y-114762000D01*
X137756321Y-114858800D01*
X136618194Y-114858800D01*
X135204200Y-113444807D01*
X135204200Y-111252000D01*
X137931908Y-111252000D01*
X138047161Y-111831418D01*
X138375375Y-112322625D01*
X138866582Y-112650839D01*
X139299744Y-112737000D01*
X139592256Y-112737000D01*
X140025418Y-112650839D01*
X140516625Y-112322625D01*
X140578560Y-112229933D01*
X140578560Y-114272000D01*
X140627843Y-114519765D01*
X140768191Y-114729809D01*
X140978235Y-114870157D01*
X141226000Y-114919440D01*
X143826000Y-114919440D01*
X144073765Y-114870157D01*
X144283809Y-114729809D01*
X144424157Y-114519765D01*
X144473440Y-114272000D01*
X144473440Y-112807750D01*
X169991000Y-112807750D01*
X169991000Y-114398310D01*
X170087673Y-114631699D01*
X170266302Y-114810327D01*
X170499691Y-114907000D01*
X171640250Y-114907000D01*
X171799000Y-114748250D01*
X171799000Y-112649000D01*
X172053000Y-112649000D01*
X172053000Y-114748250D01*
X172211750Y-114907000D01*
X173352309Y-114907000D01*
X173585698Y-114810327D01*
X173764327Y-114631699D01*
X173861000Y-114398310D01*
X173861000Y-112807750D01*
X173702250Y-112649000D01*
X172053000Y-112649000D01*
X171799000Y-112649000D01*
X170149750Y-112649000D01*
X169991000Y-112807750D01*
X144473440Y-112807750D01*
X144473440Y-110772000D01*
X144448316Y-110645690D01*
X169991000Y-110645690D01*
X169991000Y-112236250D01*
X170149750Y-112395000D01*
X171799000Y-112395000D01*
X171799000Y-110295750D01*
X172053000Y-110295750D01*
X172053000Y-112395000D01*
X173702250Y-112395000D01*
X173861000Y-112236250D01*
X173861000Y-110973890D01*
X178009524Y-110973890D01*
X178179355Y-111383924D01*
X178569642Y-111812183D01*
X179094108Y-112058486D01*
X179324000Y-111937819D01*
X179324000Y-110744000D01*
X178130845Y-110744000D01*
X178009524Y-110973890D01*
X173861000Y-110973890D01*
X173861000Y-110645690D01*
X173764327Y-110412301D01*
X173585698Y-110233673D01*
X173352309Y-110137000D01*
X172211750Y-110137000D01*
X172053000Y-110295750D01*
X171799000Y-110295750D01*
X171640250Y-110137000D01*
X170499691Y-110137000D01*
X170266302Y-110233673D01*
X170087673Y-110412301D01*
X169991000Y-110645690D01*
X144448316Y-110645690D01*
X144424157Y-110524235D01*
X144283809Y-110314191D01*
X144073765Y-110173843D01*
X143826000Y-110124560D01*
X141226000Y-110124560D01*
X140978235Y-110173843D01*
X140768191Y-110314191D01*
X140735578Y-110363000D01*
X140637983Y-110363000D01*
X140516625Y-110181375D01*
X140197522Y-109968157D01*
X140327358Y-109907183D01*
X140717645Y-109478924D01*
X140887476Y-109068890D01*
X140766155Y-108839000D01*
X139573000Y-108839000D01*
X139573000Y-108859000D01*
X139319000Y-108859000D01*
X139319000Y-108839000D01*
X138125845Y-108839000D01*
X138004524Y-109068890D01*
X138174355Y-109478924D01*
X138564642Y-109907183D01*
X138694478Y-109968157D01*
X138375375Y-110181375D01*
X138047161Y-110672582D01*
X137931908Y-111252000D01*
X135204200Y-111252000D01*
X135204200Y-108159549D01*
X135220620Y-108077000D01*
X135204200Y-107994451D01*
X135204200Y-107994446D01*
X135155567Y-107749951D01*
X134970308Y-107472692D01*
X134900325Y-107425931D01*
X133350455Y-105876062D01*
X133253655Y-105642365D01*
X132990635Y-105379345D01*
X132646983Y-105237000D01*
X132275017Y-105237000D01*
X131931365Y-105379345D01*
X131668345Y-105642365D01*
X131526000Y-105986017D01*
X131526000Y-106357983D01*
X131631371Y-106612371D01*
X131376983Y-106507000D01*
X131005017Y-106507000D01*
X130661365Y-106649345D01*
X130398345Y-106912365D01*
X130256000Y-107256017D01*
X126186000Y-107256017D01*
X126186000Y-101136666D01*
X126215137Y-100906017D01*
X136606000Y-100906017D01*
X136606000Y-101277983D01*
X136748345Y-101621635D01*
X137011365Y-101884655D01*
X137355017Y-102027000D01*
X137726983Y-102027000D01*
X137960679Y-101930200D01*
X143065564Y-101930200D01*
X142661205Y-102334560D01*
X142426000Y-102334560D01*
X142178235Y-102383843D01*
X141968191Y-102524191D01*
X141827843Y-102734235D01*
X141826100Y-102743000D01*
X140935682Y-102743000D01*
X140894157Y-102534235D01*
X140753809Y-102324191D01*
X140543765Y-102183843D01*
X140296000Y-102134560D01*
X138596000Y-102134560D01*
X138348235Y-102183843D01*
X138138191Y-102324191D01*
X137997843Y-102534235D01*
X137948560Y-102782000D01*
X137948560Y-104482000D01*
X137997843Y-104729765D01*
X138138191Y-104939809D01*
X138348235Y-105080157D01*
X138393619Y-105089184D01*
X138375375Y-105101375D01*
X138047161Y-105592582D01*
X137931908Y-106172000D01*
X138047161Y-106751418D01*
X138375375Y-107242625D01*
X138694478Y-107455843D01*
X138564642Y-107516817D01*
X138174355Y-107945076D01*
X138004524Y-108355110D01*
X138125845Y-108585000D01*
X139319000Y-108585000D01*
X139319000Y-108565000D01*
X139573000Y-108565000D01*
X139573000Y-108585000D01*
X140766155Y-108585000D01*
X140887476Y-108355110D01*
X140717645Y-107945076D01*
X140327358Y-107516817D01*
X140197522Y-107455843D01*
X140516625Y-107242625D01*
X140637983Y-107061000D01*
X141826100Y-107061000D01*
X141827843Y-107069765D01*
X141968191Y-107279809D01*
X142178235Y-107420157D01*
X142339322Y-107452199D01*
X142386434Y-107689049D01*
X142524929Y-107896322D01*
X142524931Y-107896324D01*
X142571693Y-107966308D01*
X142641677Y-108013070D01*
X143874930Y-109246324D01*
X143921692Y-109316308D01*
X143991676Y-109363070D01*
X143991677Y-109363071D01*
X144079597Y-109421817D01*
X144198951Y-109501567D01*
X144443446Y-109550200D01*
X144443450Y-109550200D01*
X144525999Y-109566620D01*
X144608548Y-109550200D01*
X153631321Y-109550200D01*
X153865017Y-109647000D01*
X154236983Y-109647000D01*
X154580635Y-109504655D01*
X154843655Y-109241635D01*
X154986000Y-108897983D01*
X154986000Y-108526017D01*
X154843655Y-108182365D01*
X154580635Y-107919345D01*
X154236983Y-107777000D01*
X153865017Y-107777000D01*
X153631321Y-107873800D01*
X144873194Y-107873800D01*
X144321102Y-107321709D01*
X144383809Y-107279809D01*
X144524157Y-107069765D01*
X144529721Y-107041791D01*
X144587673Y-107181699D01*
X144766302Y-107360327D01*
X144999691Y-107457000D01*
X145590250Y-107457000D01*
X145749000Y-107298250D01*
X145749000Y-106299000D01*
X146003000Y-106299000D01*
X146003000Y-107298250D01*
X146161750Y-107457000D01*
X146752309Y-107457000D01*
X146985698Y-107360327D01*
X147164327Y-107181699D01*
X147261000Y-106948310D01*
X147261000Y-106457750D01*
X147102250Y-106299000D01*
X146003000Y-106299000D01*
X145749000Y-106299000D01*
X145729000Y-106299000D01*
X145729000Y-106045000D01*
X145749000Y-106045000D01*
X145749000Y-105045750D01*
X145605250Y-104902000D01*
X145749000Y-104758250D01*
X145749000Y-103759000D01*
X146003000Y-103759000D01*
X146003000Y-104758250D01*
X146146750Y-104902000D01*
X146003000Y-105045750D01*
X146003000Y-106045000D01*
X147102250Y-106045000D01*
X147261000Y-105886250D01*
X147261000Y-105395690D01*
X147242496Y-105351017D01*
X148036000Y-105351017D01*
X148036000Y-105722983D01*
X148178345Y-106066635D01*
X148441365Y-106329655D01*
X148785017Y-106472000D01*
X149156983Y-106472000D01*
X149390679Y-106375200D01*
X170141321Y-106375200D01*
X170375017Y-106472000D01*
X170746983Y-106472000D01*
X171090635Y-106329655D01*
X171353655Y-106066635D01*
X171496000Y-105722983D01*
X171496000Y-105351017D01*
X171353655Y-105007365D01*
X171090635Y-104744345D01*
X170746983Y-104602000D01*
X170375017Y-104602000D01*
X170141321Y-104698800D01*
X149390679Y-104698800D01*
X149156983Y-104602000D01*
X148785017Y-104602000D01*
X148441365Y-104744345D01*
X148178345Y-105007365D01*
X148036000Y-105351017D01*
X147242496Y-105351017D01*
X147164327Y-105162301D01*
X146985698Y-104983673D01*
X146788522Y-104902000D01*
X146985698Y-104820327D01*
X147164327Y-104641699D01*
X147261000Y-104408310D01*
X147261000Y-103917750D01*
X147102250Y-103759000D01*
X146003000Y-103759000D01*
X145749000Y-103759000D01*
X145729000Y-103759000D01*
X145729000Y-103505000D01*
X145749000Y-103505000D01*
X145749000Y-103485000D01*
X146003000Y-103485000D01*
X146003000Y-103505000D01*
X147102250Y-103505000D01*
X147261000Y-103346250D01*
X147261000Y-103251000D01*
X173367765Y-103251000D01*
X177979523Y-107862759D01*
X177936908Y-108077000D01*
X178022798Y-108508800D01*
X176623194Y-108508800D01*
X176530455Y-108416062D01*
X176433655Y-108182365D01*
X176170635Y-107919345D01*
X175826983Y-107777000D01*
X175455017Y-107777000D01*
X175111365Y-107919345D01*
X174848345Y-108182365D01*
X174706000Y-108526017D01*
X174706000Y-108897983D01*
X174848345Y-109241635D01*
X175111365Y-109504655D01*
X175345062Y-109601455D01*
X175624930Y-109881324D01*
X175671692Y-109951308D01*
X175741676Y-109998070D01*
X175741677Y-109998071D01*
X175948950Y-110136567D01*
X176003907Y-110147498D01*
X176193446Y-110185200D01*
X176193449Y-110185200D01*
X176276000Y-110201620D01*
X176358550Y-110185200D01*
X178040551Y-110185200D01*
X178009524Y-110260110D01*
X178130845Y-110490000D01*
X179324000Y-110490000D01*
X179324000Y-110470000D01*
X179578000Y-110470000D01*
X179578000Y-110490000D01*
X179598000Y-110490000D01*
X179598000Y-110744000D01*
X179578000Y-110744000D01*
X179578000Y-111937819D01*
X179807892Y-112058486D01*
X180332358Y-111812183D01*
X180521039Y-111605145D01*
X180542843Y-111714765D01*
X180683191Y-111924809D01*
X180893235Y-112065157D01*
X181141000Y-112114440D01*
X182841000Y-112114440D01*
X183088765Y-112065157D01*
X183298809Y-111924809D01*
X183439157Y-111714765D01*
X183488440Y-111467000D01*
X183488440Y-109767000D01*
X183439157Y-109519235D01*
X183298809Y-109309191D01*
X183088765Y-109168843D01*
X183043381Y-109159816D01*
X183061625Y-109147625D01*
X183389839Y-108656418D01*
X183505092Y-108077000D01*
X183389839Y-107497582D01*
X183061625Y-107006375D01*
X182763239Y-106807000D01*
X183061625Y-106607625D01*
X183389839Y-106116418D01*
X183505092Y-105537000D01*
X183389839Y-104957582D01*
X183061625Y-104466375D01*
X182570418Y-104138161D01*
X182137256Y-104052000D01*
X181844744Y-104052000D01*
X181411582Y-104138161D01*
X180920375Y-104466375D01*
X180721000Y-104764761D01*
X180521625Y-104466375D01*
X180030418Y-104138161D01*
X179597256Y-104052000D01*
X179304744Y-104052000D01*
X178871582Y-104138161D01*
X178380375Y-104466375D01*
X178052161Y-104957582D01*
X177975288Y-105344052D01*
X174426531Y-101795296D01*
X174376933Y-101721067D01*
X174082870Y-101524581D01*
X173823556Y-101473000D01*
X173823555Y-101473000D01*
X173736000Y-101455584D01*
X173648445Y-101473000D01*
X145380221Y-101473000D01*
X145461000Y-101277983D01*
X145461000Y-100906017D01*
X145318655Y-100562365D01*
X145055635Y-100299345D01*
X144711983Y-100157000D01*
X144340017Y-100157000D01*
X144106321Y-100253800D01*
X137960679Y-100253800D01*
X137726983Y-100157000D01*
X137355017Y-100157000D01*
X137011365Y-100299345D01*
X136748345Y-100562365D01*
X136606000Y-100906017D01*
X126215137Y-100906017D01*
X126248958Y-100638302D01*
X126417305Y-100213107D01*
X126686101Y-99843142D01*
X127038462Y-99551644D01*
X127452244Y-99356933D01*
X127934662Y-99264907D01*
X128027164Y-99262000D01*
X182140968Y-99262000D01*
X181492930Y-99910038D01*
X181492930Y-99910038D01*
G37*
X181492930Y-99910038D02*
X181107000Y-100841757D01*
X181107000Y-101850243D01*
X181492930Y-102781962D01*
X182206038Y-103495070D01*
X183137757Y-103881000D01*
X184146243Y-103881000D01*
X185077962Y-103495070D01*
X185726001Y-102847031D01*
X185726000Y-132797333D01*
X185663042Y-133295699D01*
X185494697Y-133720889D01*
X185225899Y-134090859D01*
X184873541Y-134382355D01*
X184459756Y-134577067D01*
X183977339Y-134669093D01*
X183884836Y-134672000D01*
X128060667Y-134672000D01*
X127562301Y-134609042D01*
X127137111Y-134440697D01*
X126767141Y-134171899D01*
X126475645Y-133819541D01*
X126280933Y-133405756D01*
X126188907Y-132923339D01*
X126186000Y-132830836D01*
X126186000Y-127428031D01*
X130277300Y-127428031D01*
X130277300Y-128075969D01*
X130525255Y-128674584D01*
X130983416Y-129132745D01*
X131582031Y-129380700D01*
X132229969Y-129380700D01*
X132588000Y-129232398D01*
X132588000Y-129385666D01*
X132858684Y-130039156D01*
X133358844Y-130539316D01*
X134012334Y-130810000D01*
X134719666Y-130810000D01*
X135373156Y-130539316D01*
X135411798Y-130500674D01*
X135525255Y-130774584D01*
X135983416Y-131232745D01*
X136582031Y-131480700D01*
X137229969Y-131480700D01*
X137828584Y-131232745D01*
X138286745Y-130774584D01*
X138534700Y-130175969D01*
X138534700Y-129528031D01*
X138286745Y-128929416D01*
X137828584Y-128471255D01*
X137229969Y-128223300D01*
X136582031Y-128223300D01*
X136047270Y-128444806D01*
X135873316Y-128024844D01*
X135373156Y-127524684D01*
X134719666Y-127254000D01*
X134012334Y-127254000D01*
X133534700Y-127451842D01*
X133534700Y-127428031D01*
X133286745Y-126829416D01*
X132828584Y-126371255D01*
X132229969Y-126123300D01*
X131582031Y-126123300D01*
X130983416Y-126371255D01*
X130525255Y-126829416D01*
X130277300Y-127428031D01*
X126186000Y-127428031D01*
X126186000Y-123952000D01*
X129939949Y-123952000D01*
X130062964Y-124570436D01*
X130413279Y-125094721D01*
X130937564Y-125445036D01*
X131399897Y-125537000D01*
X131883003Y-125537000D01*
X132345336Y-125445036D01*
X132869621Y-125094721D01*
X133219936Y-124570436D01*
X133342951Y-123952000D01*
X133219936Y-123333564D01*
X132869621Y-122809279D01*
X132345336Y-122458964D01*
X131883003Y-122367000D01*
X131399897Y-122367000D01*
X130937564Y-122458964D01*
X130413279Y-122809279D01*
X130062964Y-123333564D01*
X129939949Y-123952000D01*
X126186000Y-123952000D01*
X126186000Y-120591017D01*
X132796000Y-120591017D01*
X132796000Y-120962983D01*
X132938345Y-121306635D01*
X133201365Y-121569655D01*
X133545017Y-121712000D01*
X133916983Y-121712000D01*
X134150679Y-121615200D01*
X135677887Y-121615200D01*
X135416848Y-121723326D01*
X134677326Y-122462848D01*
X134277100Y-123429079D01*
X134277100Y-124474921D01*
X134677326Y-125441152D01*
X135416848Y-126180674D01*
X136383079Y-126580900D01*
X137428921Y-126580900D01*
X138395152Y-126180674D01*
X138437492Y-126138334D01*
X138938000Y-126138334D01*
X138938000Y-126845666D01*
X139208684Y-127499156D01*
X139708844Y-127999316D01*
X140362334Y-128270000D01*
X141069666Y-128270000D01*
X141723156Y-127999316D01*
X142223316Y-127499156D01*
X142252776Y-127428031D01*
X149327300Y-127428031D01*
X149327300Y-128075969D01*
X149575255Y-128674584D01*
X150033416Y-129132745D01*
X150632031Y-129380700D01*
X151279969Y-129380700D01*
X151638000Y-129232398D01*
X151638000Y-129385666D01*
X151908684Y-130039156D01*
X152408844Y-130539316D01*
X153062334Y-130810000D01*
X153769666Y-130810000D01*
X154423156Y-130539316D01*
X154461798Y-130500674D01*
X154575255Y-130774584D01*
X155033416Y-131232745D01*
X155632031Y-131480700D01*
X156279969Y-131480700D01*
X156878584Y-131232745D01*
X157336745Y-130774584D01*
X157584700Y-130175969D01*
X157584700Y-129528031D01*
X157336745Y-128929416D01*
X156878584Y-128471255D01*
X156279969Y-128223300D01*
X155632031Y-128223300D01*
X155097270Y-128444806D01*
X154923316Y-128024844D01*
X154423156Y-127524684D01*
X153769666Y-127254000D01*
X153062334Y-127254000D01*
X152584700Y-127451842D01*
X152584700Y-127428031D01*
X152336745Y-126829416D01*
X151878584Y-126371255D01*
X151279969Y-126123300D01*
X150632031Y-126123300D01*
X150033416Y-126371255D01*
X149575255Y-126829416D01*
X149327300Y-127428031D01*
X142252776Y-127428031D01*
X142494000Y-126845666D01*
X142494000Y-126138334D01*
X142244920Y-125537000D01*
X142412103Y-125537000D01*
X142874436Y-125445036D01*
X143398721Y-125094721D01*
X143749036Y-124570436D01*
X143872051Y-123952000D01*
X148989949Y-123952000D01*
X149112964Y-124570436D01*
X149463279Y-125094721D01*
X149987564Y-125445036D01*
X150449897Y-125537000D01*
X150933003Y-125537000D01*
X151395336Y-125445036D01*
X151919621Y-125094721D01*
X152269936Y-124570436D01*
X152392951Y-123952000D01*
X152269936Y-123333564D01*
X151919621Y-122809279D01*
X151395336Y-122458964D01*
X150933003Y-122367000D01*
X150449897Y-122367000D01*
X149987564Y-122458964D01*
X149463279Y-122809279D01*
X149112964Y-123333564D01*
X148989949Y-123952000D01*
X143872051Y-123952000D01*
X143749036Y-123333564D01*
X143398721Y-122809279D01*
X142874436Y-122458964D01*
X142412103Y-122367000D01*
X141928997Y-122367000D01*
X141466664Y-122458964D01*
X140942379Y-122809279D01*
X140592064Y-123333564D01*
X140469049Y-123952000D01*
X140592064Y-124570436D01*
X140687990Y-124714000D01*
X140362334Y-124714000D01*
X139708844Y-124984684D01*
X139208684Y-125484844D01*
X138938000Y-126138334D01*
X138437492Y-126138334D01*
X139134674Y-125441152D01*
X139534900Y-124474921D01*
X139534900Y-123429079D01*
X139134674Y-122462848D01*
X138395152Y-121723326D01*
X138134113Y-121615200D01*
X154727887Y-121615200D01*
X154466848Y-121723326D01*
X153727326Y-122462848D01*
X153327100Y-123429079D01*
X153327100Y-124474921D01*
X153727326Y-125441152D01*
X154466848Y-126180674D01*
X155433079Y-126580900D01*
X156478921Y-126580900D01*
X157445152Y-126180674D01*
X157487492Y-126138334D01*
X157988000Y-126138334D01*
X157988000Y-126845666D01*
X158258684Y-127499156D01*
X158758844Y-127999316D01*
X159412334Y-128270000D01*
X160119666Y-128270000D01*
X160773156Y-127999316D01*
X161273316Y-127499156D01*
X161302776Y-127428031D01*
X168377300Y-127428031D01*
X168377300Y-128075969D01*
X168625255Y-128674584D01*
X169083416Y-129132745D01*
X169682031Y-129380700D01*
X170329969Y-129380700D01*
X170688000Y-129232398D01*
X170688000Y-129385666D01*
X170958684Y-130039156D01*
X171458844Y-130539316D01*
X172112334Y-130810000D01*
X172819666Y-130810000D01*
X173473156Y-130539316D01*
X173511798Y-130500674D01*
X173625255Y-130774584D01*
X174083416Y-131232745D01*
X174682031Y-131480700D01*
X175329969Y-131480700D01*
X175928584Y-131232745D01*
X176386745Y-130774584D01*
X176634700Y-130175969D01*
X176634700Y-129528031D01*
X176386745Y-128929416D01*
X175928584Y-128471255D01*
X175329969Y-128223300D01*
X174682031Y-128223300D01*
X174147270Y-128444806D01*
X173973316Y-128024844D01*
X173473156Y-127524684D01*
X172819666Y-127254000D01*
X172112334Y-127254000D01*
X171634700Y-127451842D01*
X171634700Y-127428031D01*
X171386745Y-126829416D01*
X170928584Y-126371255D01*
X170329969Y-126123300D01*
X169682031Y-126123300D01*
X169083416Y-126371255D01*
X168625255Y-126829416D01*
X168377300Y-127428031D01*
X161302776Y-127428031D01*
X161544000Y-126845666D01*
X161544000Y-126138334D01*
X161294920Y-125537000D01*
X161462103Y-125537000D01*
X161924436Y-125445036D01*
X162448721Y-125094721D01*
X162799036Y-124570436D01*
X162922051Y-123952000D01*
X168039949Y-123952000D01*
X168162964Y-124570436D01*
X168513279Y-125094721D01*
X169037564Y-125445036D01*
X169499897Y-125537000D01*
X169983003Y-125537000D01*
X170445336Y-125445036D01*
X170969621Y-125094721D01*
X171319936Y-124570436D01*
X171442951Y-123952000D01*
X171338936Y-123429079D01*
X172377100Y-123429079D01*
X172377100Y-124474921D01*
X172777326Y-125441152D01*
X173516848Y-126180674D01*
X174483079Y-126580900D01*
X175528921Y-126580900D01*
X176495152Y-126180674D01*
X176537492Y-126138334D01*
X177038000Y-126138334D01*
X177038000Y-126845666D01*
X177308684Y-127499156D01*
X177808844Y-127999316D01*
X178462334Y-128270000D01*
X179169666Y-128270000D01*
X179823156Y-127999316D01*
X180323316Y-127499156D01*
X180594000Y-126845666D01*
X180594000Y-126138334D01*
X180344920Y-125537000D01*
X180512103Y-125537000D01*
X180974436Y-125445036D01*
X181498721Y-125094721D01*
X181849036Y-124570436D01*
X181972051Y-123952000D01*
X181849036Y-123333564D01*
X181498721Y-122809279D01*
X180974436Y-122458964D01*
X180512103Y-122367000D01*
X180028997Y-122367000D01*
X179566664Y-122458964D01*
X179042379Y-122809279D01*
X178692064Y-123333564D01*
X178569049Y-123952000D01*
X178692064Y-124570436D01*
X178787990Y-124714000D01*
X178462334Y-124714000D01*
X177808844Y-124984684D01*
X177308684Y-125484844D01*
X177038000Y-126138334D01*
X176537492Y-126138334D01*
X177234674Y-125441152D01*
X177634900Y-124474921D01*
X177634900Y-123429079D01*
X177234674Y-122462848D01*
X176495152Y-121723326D01*
X175528921Y-121323100D01*
X174483079Y-121323100D01*
X173516848Y-121723326D01*
X172777326Y-122462848D01*
X172377100Y-123429079D01*
X171338936Y-123429079D01*
X171319936Y-123333564D01*
X170969621Y-122809279D01*
X170445336Y-122458964D01*
X169983003Y-122367000D01*
X169499897Y-122367000D01*
X169037564Y-122458964D01*
X168513279Y-122809279D01*
X168162964Y-123333564D01*
X168039949Y-123952000D01*
X162922051Y-123952000D01*
X162799036Y-123333564D01*
X162448721Y-122809279D01*
X161924436Y-122458964D01*
X161462103Y-122367000D01*
X160978997Y-122367000D01*
X160516664Y-122458964D01*
X159992379Y-122809279D01*
X159642064Y-123333564D01*
X159519049Y-123952000D01*
X159642064Y-124570436D01*
X159737990Y-124714000D01*
X159412334Y-124714000D01*
X158758844Y-124984684D01*
X158258684Y-125484844D01*
X157988000Y-126138334D01*
X157487492Y-126138334D01*
X158184674Y-125441152D01*
X158584900Y-124474921D01*
X158584900Y-123429079D01*
X158184674Y-122462848D01*
X157445152Y-121723326D01*
X157184113Y-121615200D01*
X169506321Y-121615200D01*
X169740017Y-121712000D01*
X170111983Y-121712000D01*
X170455635Y-121569655D01*
X170718655Y-121306635D01*
X170861000Y-120962983D01*
X170861000Y-120591017D01*
X170718655Y-120247365D01*
X170455635Y-119984345D01*
X170111983Y-119842000D01*
X169740017Y-119842000D01*
X169506321Y-119938800D01*
X134150679Y-119938800D01*
X133916983Y-119842000D01*
X133545017Y-119842000D01*
X133201365Y-119984345D01*
X132938345Y-120247365D01*
X132796000Y-120591017D01*
X126186000Y-120591017D01*
X126186000Y-117416017D01*
X137241000Y-117416017D01*
X137241000Y-117787983D01*
X137383345Y-118131635D01*
X137646365Y-118394655D01*
X137990017Y-118537000D01*
X138361983Y-118537000D01*
X138595679Y-118440200D01*
X152996321Y-118440200D01*
X153230017Y-118537000D01*
X153601983Y-118537000D01*
X153945635Y-118394655D01*
X154208655Y-118131635D01*
X154351000Y-117787983D01*
X154351000Y-117416017D01*
X154208655Y-117072365D01*
X153945635Y-116809345D01*
X153601983Y-116667000D01*
X153230017Y-116667000D01*
X152996321Y-116763800D01*
X138595679Y-116763800D01*
X138361983Y-116667000D01*
X137990017Y-116667000D01*
X137646365Y-116809345D01*
X137383345Y-117072365D01*
X137241000Y-117416017D01*
X126186000Y-117416017D01*
X126186000Y-107256017D01*
X130256000Y-107256017D01*
X130256000Y-107627983D01*
X130398345Y-107971635D01*
X130661365Y-108234655D01*
X130895062Y-108331455D01*
X132257800Y-109694194D01*
X132257801Y-115912318D01*
X132161000Y-116146017D01*
X132161000Y-116517983D01*
X132303345Y-116861635D01*
X132566365Y-117124655D01*
X132910017Y-117267000D01*
X133281983Y-117267000D01*
X133625635Y-117124655D01*
X133888655Y-116861635D01*
X134031000Y-116517983D01*
X134031000Y-116146017D01*
X133934200Y-115912321D01*
X133934200Y-114545593D01*
X135619930Y-116231324D01*
X135666692Y-116301308D01*
X135736676Y-116348070D01*
X135736677Y-116348071D01*
X135836176Y-116414554D01*
X135943951Y-116486567D01*
X136188446Y-116535200D01*
X136188451Y-116535200D01*
X136271000Y-116551620D01*
X136353549Y-116535200D01*
X137756321Y-116535200D01*
X137990017Y-116632000D01*
X138361983Y-116632000D01*
X138705635Y-116489655D01*
X138968655Y-116226635D01*
X139111000Y-115882983D01*
X139111000Y-115511017D01*
X138968655Y-115167365D01*
X138705635Y-114904345D01*
X138361983Y-114762000D01*
X137990017Y-114762000D01*
X137756321Y-114858800D01*
X136618194Y-114858800D01*
X135204200Y-113444807D01*
X135204200Y-111252000D01*
X137931908Y-111252000D01*
X138047161Y-111831418D01*
X138375375Y-112322625D01*
X138866582Y-112650839D01*
X139299744Y-112737000D01*
X139592256Y-112737000D01*
X140025418Y-112650839D01*
X140516625Y-112322625D01*
X140578560Y-112229933D01*
X140578560Y-114272000D01*
X140627843Y-114519765D01*
X140768191Y-114729809D01*
X140978235Y-114870157D01*
X141226000Y-114919440D01*
X143826000Y-114919440D01*
X144073765Y-114870157D01*
X144283809Y-114729809D01*
X144424157Y-114519765D01*
X144473440Y-114272000D01*
X144473440Y-112807750D01*
X169991000Y-112807750D01*
X169991000Y-114398310D01*
X170087673Y-114631699D01*
X170266302Y-114810327D01*
X170499691Y-114907000D01*
X171640250Y-114907000D01*
X171799000Y-114748250D01*
X171799000Y-112649000D01*
X172053000Y-112649000D01*
X172053000Y-114748250D01*
X172211750Y-114907000D01*
X173352309Y-114907000D01*
X173585698Y-114810327D01*
X173764327Y-114631699D01*
X173861000Y-114398310D01*
X173861000Y-112807750D01*
X173702250Y-112649000D01*
X172053000Y-112649000D01*
X171799000Y-112649000D01*
X170149750Y-112649000D01*
X169991000Y-112807750D01*
X144473440Y-112807750D01*
X144473440Y-110772000D01*
X144448316Y-110645690D01*
X169991000Y-110645690D01*
X169991000Y-112236250D01*
X170149750Y-112395000D01*
X171799000Y-112395000D01*
X171799000Y-110295750D01*
X172053000Y-110295750D01*
X172053000Y-112395000D01*
X173702250Y-112395000D01*
X173861000Y-112236250D01*
X173861000Y-110973890D01*
X178009524Y-110973890D01*
X178179355Y-111383924D01*
X178569642Y-111812183D01*
X179094108Y-112058486D01*
X179324000Y-111937819D01*
X179324000Y-110744000D01*
X178130845Y-110744000D01*
X178009524Y-110973890D01*
X173861000Y-110973890D01*
X173861000Y-110645690D01*
X173764327Y-110412301D01*
X173585698Y-110233673D01*
X173352309Y-110137000D01*
X172211750Y-110137000D01*
X172053000Y-110295750D01*
X171799000Y-110295750D01*
X171640250Y-110137000D01*
X170499691Y-110137000D01*
X170266302Y-110233673D01*
X170087673Y-110412301D01*
X169991000Y-110645690D01*
X144448316Y-110645690D01*
X144424157Y-110524235D01*
X144283809Y-110314191D01*
X144073765Y-110173843D01*
X143826000Y-110124560D01*
X141226000Y-110124560D01*
X140978235Y-110173843D01*
X140768191Y-110314191D01*
X140735578Y-110363000D01*
X140637983Y-110363000D01*
X140516625Y-110181375D01*
X140197522Y-109968157D01*
X140327358Y-109907183D01*
X140717645Y-109478924D01*
X140887476Y-109068890D01*
X140766155Y-108839000D01*
X139573000Y-108839000D01*
X139573000Y-108859000D01*
X139319000Y-108859000D01*
X139319000Y-108839000D01*
X138125845Y-108839000D01*
X138004524Y-109068890D01*
X138174355Y-109478924D01*
X138564642Y-109907183D01*
X138694478Y-109968157D01*
X138375375Y-110181375D01*
X138047161Y-110672582D01*
X137931908Y-111252000D01*
X135204200Y-111252000D01*
X135204200Y-108159549D01*
X135220620Y-108077000D01*
X135204200Y-107994451D01*
X135204200Y-107994446D01*
X135155567Y-107749951D01*
X134970308Y-107472692D01*
X134900325Y-107425931D01*
X133350455Y-105876062D01*
X133253655Y-105642365D01*
X132990635Y-105379345D01*
X132646983Y-105237000D01*
X132275017Y-105237000D01*
X131931365Y-105379345D01*
X131668345Y-105642365D01*
X131526000Y-105986017D01*
X131526000Y-106357983D01*
X131631371Y-106612371D01*
X131376983Y-106507000D01*
X131005017Y-106507000D01*
X130661365Y-106649345D01*
X130398345Y-106912365D01*
X130256000Y-107256017D01*
X126186000Y-107256017D01*
X126186000Y-101136666D01*
X126215137Y-100906017D01*
X136606000Y-100906017D01*
X136606000Y-101277983D01*
X136748345Y-101621635D01*
X137011365Y-101884655D01*
X137355017Y-102027000D01*
X137726983Y-102027000D01*
X137960679Y-101930200D01*
X143065564Y-101930200D01*
X142661205Y-102334560D01*
X142426000Y-102334560D01*
X142178235Y-102383843D01*
X141968191Y-102524191D01*
X141827843Y-102734235D01*
X141826100Y-102743000D01*
X140935682Y-102743000D01*
X140894157Y-102534235D01*
X140753809Y-102324191D01*
X140543765Y-102183843D01*
X140296000Y-102134560D01*
X138596000Y-102134560D01*
X138348235Y-102183843D01*
X138138191Y-102324191D01*
X137997843Y-102534235D01*
X137948560Y-102782000D01*
X137948560Y-104482000D01*
X137997843Y-104729765D01*
X138138191Y-104939809D01*
X138348235Y-105080157D01*
X138393619Y-105089184D01*
X138375375Y-105101375D01*
X138047161Y-105592582D01*
X137931908Y-106172000D01*
X138047161Y-106751418D01*
X138375375Y-107242625D01*
X138694478Y-107455843D01*
X138564642Y-107516817D01*
X138174355Y-107945076D01*
X138004524Y-108355110D01*
X138125845Y-108585000D01*
X139319000Y-108585000D01*
X139319000Y-108565000D01*
X139573000Y-108565000D01*
X139573000Y-108585000D01*
X140766155Y-108585000D01*
X140887476Y-108355110D01*
X140717645Y-107945076D01*
X140327358Y-107516817D01*
X140197522Y-107455843D01*
X140516625Y-107242625D01*
X140637983Y-107061000D01*
X141826100Y-107061000D01*
X141827843Y-107069765D01*
X141968191Y-107279809D01*
X142178235Y-107420157D01*
X142339322Y-107452199D01*
X142386434Y-107689049D01*
X142524929Y-107896322D01*
X142524931Y-107896324D01*
X142571693Y-107966308D01*
X142641677Y-108013070D01*
X143874930Y-109246324D01*
X143921692Y-109316308D01*
X143991676Y-109363070D01*
X143991677Y-109363071D01*
X144079597Y-109421817D01*
X144198951Y-109501567D01*
X144443446Y-109550200D01*
X144443450Y-109550200D01*
X144525999Y-109566620D01*
X144608548Y-109550200D01*
X153631321Y-109550200D01*
X153865017Y-109647000D01*
X154236983Y-109647000D01*
X154580635Y-109504655D01*
X154843655Y-109241635D01*
X154986000Y-108897983D01*
X154986000Y-108526017D01*
X154843655Y-108182365D01*
X154580635Y-107919345D01*
X154236983Y-107777000D01*
X153865017Y-107777000D01*
X153631321Y-107873800D01*
X144873194Y-107873800D01*
X144321102Y-107321709D01*
X144383809Y-107279809D01*
X144524157Y-107069765D01*
X144529721Y-107041791D01*
X144587673Y-107181699D01*
X144766302Y-107360327D01*
X144999691Y-107457000D01*
X145590250Y-107457000D01*
X145749000Y-107298250D01*
X145749000Y-106299000D01*
X146003000Y-106299000D01*
X146003000Y-107298250D01*
X146161750Y-107457000D01*
X146752309Y-107457000D01*
X146985698Y-107360327D01*
X147164327Y-107181699D01*
X147261000Y-106948310D01*
X147261000Y-106457750D01*
X147102250Y-106299000D01*
X146003000Y-106299000D01*
X145749000Y-106299000D01*
X145729000Y-106299000D01*
X145729000Y-106045000D01*
X145749000Y-106045000D01*
X145749000Y-105045750D01*
X145605250Y-104902000D01*
X145749000Y-104758250D01*
X145749000Y-103759000D01*
X146003000Y-103759000D01*
X146003000Y-104758250D01*
X146146750Y-104902000D01*
X146003000Y-105045750D01*
X146003000Y-106045000D01*
X147102250Y-106045000D01*
X147261000Y-105886250D01*
X147261000Y-105395690D01*
X147242496Y-105351017D01*
X148036000Y-105351017D01*
X148036000Y-105722983D01*
X148178345Y-106066635D01*
X148441365Y-106329655D01*
X148785017Y-106472000D01*
X149156983Y-106472000D01*
X149390679Y-106375200D01*
X170141321Y-106375200D01*
X170375017Y-106472000D01*
X170746983Y-106472000D01*
X171090635Y-106329655D01*
X171353655Y-106066635D01*
X171496000Y-105722983D01*
X171496000Y-105351017D01*
X171353655Y-105007365D01*
X171090635Y-104744345D01*
X170746983Y-104602000D01*
X170375017Y-104602000D01*
X170141321Y-104698800D01*
X149390679Y-104698800D01*
X149156983Y-104602000D01*
X148785017Y-104602000D01*
X148441365Y-104744345D01*
X148178345Y-105007365D01*
X148036000Y-105351017D01*
X147242496Y-105351017D01*
X147164327Y-105162301D01*
X146985698Y-104983673D01*
X146788522Y-104902000D01*
X146985698Y-104820327D01*
X147164327Y-104641699D01*
X147261000Y-104408310D01*
X147261000Y-103917750D01*
X147102250Y-103759000D01*
X146003000Y-103759000D01*
X145749000Y-103759000D01*
X145729000Y-103759000D01*
X145729000Y-103505000D01*
X145749000Y-103505000D01*
X145749000Y-103485000D01*
X146003000Y-103485000D01*
X146003000Y-103505000D01*
X147102250Y-103505000D01*
X147261000Y-103346250D01*
X147261000Y-103251000D01*
X173367765Y-103251000D01*
X177979523Y-107862759D01*
X177936908Y-108077000D01*
X178022798Y-108508800D01*
X176623194Y-108508800D01*
X176530455Y-108416062D01*
X176433655Y-108182365D01*
X176170635Y-107919345D01*
X175826983Y-107777000D01*
X175455017Y-107777000D01*
X175111365Y-107919345D01*
X174848345Y-108182365D01*
X174706000Y-108526017D01*
X174706000Y-108897983D01*
X174848345Y-109241635D01*
X175111365Y-109504655D01*
X175345062Y-109601455D01*
X175624930Y-109881324D01*
X175671692Y-109951308D01*
X175741676Y-109998070D01*
X175741677Y-109998071D01*
X175948950Y-110136567D01*
X176003907Y-110147498D01*
X176193446Y-110185200D01*
X176193449Y-110185200D01*
X176276000Y-110201620D01*
X176358550Y-110185200D01*
X178040551Y-110185200D01*
X178009524Y-110260110D01*
X178130845Y-110490000D01*
X179324000Y-110490000D01*
X179324000Y-110470000D01*
X179578000Y-110470000D01*
X179578000Y-110490000D01*
X179598000Y-110490000D01*
X179598000Y-110744000D01*
X179578000Y-110744000D01*
X179578000Y-111937819D01*
X179807892Y-112058486D01*
X180332358Y-111812183D01*
X180521039Y-111605145D01*
X180542843Y-111714765D01*
X180683191Y-111924809D01*
X180893235Y-112065157D01*
X181141000Y-112114440D01*
X182841000Y-112114440D01*
X183088765Y-112065157D01*
X183298809Y-111924809D01*
X183439157Y-111714765D01*
X183488440Y-111467000D01*
X183488440Y-109767000D01*
X183439157Y-109519235D01*
X183298809Y-109309191D01*
X183088765Y-109168843D01*
X183043381Y-109159816D01*
X183061625Y-109147625D01*
X183389839Y-108656418D01*
X183505092Y-108077000D01*
X183389839Y-107497582D01*
X183061625Y-107006375D01*
X182763239Y-106807000D01*
X183061625Y-106607625D01*
X183389839Y-106116418D01*
X183505092Y-105537000D01*
X183389839Y-104957582D01*
X183061625Y-104466375D01*
X182570418Y-104138161D01*
X182137256Y-104052000D01*
X181844744Y-104052000D01*
X181411582Y-104138161D01*
X180920375Y-104466375D01*
X180721000Y-104764761D01*
X180521625Y-104466375D01*
X180030418Y-104138161D01*
X179597256Y-104052000D01*
X179304744Y-104052000D01*
X178871582Y-104138161D01*
X178380375Y-104466375D01*
X178052161Y-104957582D01*
X177975288Y-105344052D01*
X174426531Y-101795296D01*
X174376933Y-101721067D01*
X174082870Y-101524581D01*
X173823556Y-101473000D01*
X173823555Y-101473000D01*
X173736000Y-101455584D01*
X173648445Y-101473000D01*
X145380221Y-101473000D01*
X145461000Y-101277983D01*
X145461000Y-100906017D01*
X145318655Y-100562365D01*
X145055635Y-100299345D01*
X144711983Y-100157000D01*
X144340017Y-100157000D01*
X144106321Y-100253800D01*
X137960679Y-100253800D01*
X137726983Y-100157000D01*
X137355017Y-100157000D01*
X137011365Y-100299345D01*
X136748345Y-100562365D01*
X136606000Y-100906017D01*
X126215137Y-100906017D01*
X126248958Y-100638302D01*
X126417305Y-100213107D01*
X126686101Y-99843142D01*
X127038462Y-99551644D01*
X127452244Y-99356933D01*
X127934662Y-99264907D01*
X128027164Y-99262000D01*
X182140968Y-99262000D01*
X181492930Y-99910038D01*
G04 #@! TD*
M02*
