M48
;DRILL file {KiCad (5.0.1)-4} date 8/19/2019 12:57:13 AM
;FORMAT={-:-/ absolute / inch / decimal}
FMAT,2
INCH,TZ
T1C0.0157
T2C0.0394
T3C0.0472
T4C0.0590
T5C0.0866
%
G90
G05
M72
T1
X5.165Y-4.23
X5.215Y-4.18
X5.24Y-4.58
X5.265Y-4.755
X5.365Y-4.13
X5.365Y-4.43
X5.415Y-3.98
X5.44Y-4.555
X5.44Y-4.63
X5.69Y-3.98
X5.715Y-4.555
X5.865Y-4.155
X6.04Y-4.63
X6.065Y-4.28
X6.44Y-4.555
X6.69Y-4.755
X6.715Y-4.155
X6.915Y-4.28
X7.19Y-4.555
T2
X5.49Y-4.08
X5.49Y-4.18
X5.49Y-4.28
X5.49Y-4.38
X7.065Y-4.155
X7.065Y-4.255
X7.065Y-4.355
X7.165Y-4.155
X7.165Y-4.255
X7.165Y-4.355
T3
X5.1931Y-5.0296
X5.9431Y-5.0296
X6.14Y-5.1123
X6.6931Y-5.0296
X6.89Y-5.1123
X5.39Y-5.1123
T4
X6.79Y-5.08
X7.04Y-4.98
X5.29Y-5.08
X5.54Y-4.98
X6.04Y-5.08
X6.29Y-4.98
T5
X7.23Y-3.99
T0
M30
